<svg width="196" height="40" viewBox="0 0 196 40" fill="none" xmlns="http://www.w3.org/2000/svg">
<path d="M34.1422 5.85781C30.3647 2.08031 25.3422 0 20 0C14.6578 0 9.63531 2.08031 5.85781 5.85781C2.08031 9.63531 0 14.6578 0 20C0 25.3422 2.08039 30.3646 5.85781 34.1422C9.63523 37.9198 14.6578 40 20 40C25.3422 40 30.3647 37.9197 34.1422 34.1422C37.9197 30.3647 40 25.3422 40 20C40 14.6578 37.9196 9.63539 34.1422 5.85781Z" fill="#33CC95"/>
<g clip-path="url(#clip0)">
<path d="M20.5714 8V33.1429" stroke="white" stroke-width="2" stroke-linecap="round" stroke-linejoin="round"/>
<path d="M26.2857 12.5714H17.7143C16.6534 12.5714 15.636 12.9929 14.8859 13.743C14.1357 14.4932 13.7143 15.5106 13.7143 16.5714C13.7143 17.6323 14.1357 18.6497 14.8859 19.3999C15.636 20.15 16.6534 20.5714 17.7143 20.5714H23.4286C24.4894 20.5714 25.5069 20.9929 26.257 21.743C27.0072 22.4932 27.4286 23.5106 27.4286 24.5714C27.4286 25.6323 27.0072 26.6497 26.257 27.3999C25.5069 28.15 24.4894 28.5714 23.4286 28.5714H13.7143" stroke="white" stroke-width="2" stroke-linecap="round" stroke-linejoin="round"/>
</g>
<path d="M50.3779 19.304C50.3779 17.96 50.6419 16.768 51.1699 15.728C51.7139 14.688 52.4419 13.888 53.3539 13.328C54.2819 12.768 55.3139 12.488 56.4499 12.488C57.4419 12.488 58.3059 12.688 59.0419 13.088C59.7939 13.488 60.3939 13.992 60.8419 14.6V12.704H64.2259V26H60.8419V24.056C60.4099 24.68 59.8099 25.2 59.0419 25.616C58.2899 26.016 57.4179 26.216 56.4259 26.216C55.3059 26.216 54.2819 25.928 53.3539 25.352C52.4419 24.776 51.7139 23.968 51.1699 22.928C50.6419 21.872 50.3779 20.664 50.3779 19.304ZM60.8419 19.352C60.8419 18.536 60.6819 17.84 60.3619 17.264C60.0419 16.672 59.6099 16.224 59.0659 15.92C58.5219 15.6 57.9379 15.44 57.3139 15.44C56.6899 15.44 56.1139 15.592 55.5859 15.896C55.0579 16.2 54.6259 16.648 54.2899 17.24C53.9699 17.816 53.8099 18.504 53.8099 19.304C53.8099 20.104 53.9699 20.808 54.2899 21.416C54.6259 22.008 55.0579 22.464 55.5859 22.784C56.1299 23.104 56.7059 23.264 57.3139 23.264C57.9379 23.264 58.5219 23.112 59.0659 22.808C59.6099 22.488 60.0419 22.04 60.3619 21.464C60.6819 20.872 60.8419 20.168 60.8419 19.352ZM66.6436 19.304C66.6436 17.96 66.9076 16.768 67.4356 15.728C67.9796 14.688 68.7076 13.888 69.6196 13.328C70.5476 12.768 71.5796 12.488 72.7156 12.488C73.7076 12.488 74.5716 12.688 75.3076 13.088C76.0596 13.488 76.6596 13.992 77.1076 14.6V12.704H80.4916V26H77.1076V24.056C76.6756 24.68 76.0756 25.2 75.3076 25.616C74.5556 26.016 73.6836 26.216 72.6916 26.216C71.5716 26.216 70.5476 25.928 69.6196 25.352C68.7076 24.776 67.9796 23.968 67.4356 22.928C66.9076 21.872 66.6436 20.664 66.6436 19.304ZM77.1076 19.352C77.1076 18.536 76.9476 17.84 76.6276 17.264C76.3076 16.672 75.8756 16.224 75.3316 15.92C74.7876 15.6 74.2036 15.44 73.5796 15.44C72.9556 15.44 72.3796 15.592 71.8516 15.896C71.3236 16.2 70.8916 16.648 70.5556 17.24C70.2356 17.816 70.0756 18.504 70.0756 19.304C70.0756 20.104 70.2356 20.808 70.5556 21.416C70.8916 22.008 71.3236 22.464 71.8516 22.784C72.3956 23.104 72.9716 23.264 73.5796 23.264C74.2036 23.264 74.7876 23.112 75.3316 22.808C75.8756 22.488 76.3076 22.04 76.6276 21.464C76.9476 20.872 77.1076 20.168 77.1076 19.352ZM87.1332 14.624C87.5652 14.016 88.1572 13.512 88.9092 13.112C89.6772 12.696 90.5492 12.488 91.5252 12.488C92.6612 12.488 93.6852 12.768 94.5972 13.328C95.5252 13.888 96.2532 14.688 96.7812 15.728C97.3252 16.752 97.5972 17.944 97.5972 19.304C97.5972 20.664 97.3252 21.872 96.7812 22.928C96.2532 23.968 95.5252 24.776 94.5972 25.352C93.6852 25.928 92.6612 26.216 91.5252 26.216C90.5492 26.216 89.6852 26.016 88.9332 25.616C88.1972 25.216 87.5972 24.712 87.1332 24.104V32.336H83.7732V12.704H87.1332V14.624ZM94.1652 19.304C94.1652 18.504 93.9972 17.816 93.6612 17.24C93.3412 16.648 92.9092 16.2 92.3652 15.896C91.8372 15.592 91.2612 15.44 90.6372 15.44C90.0292 15.44 89.4532 15.6 88.9092 15.92C88.3812 16.224 87.9492 16.672 87.6132 17.264C87.2932 17.856 87.1332 18.552 87.1332 19.352C87.1332 20.152 87.2932 20.848 87.6132 21.44C87.9492 22.032 88.3812 22.488 88.9092 22.808C89.4532 23.112 90.0292 23.264 90.6372 23.264C91.2612 23.264 91.8372 23.104 92.3652 22.784C92.9092 22.464 93.3412 22.008 93.6612 21.416C93.9972 20.824 94.1652 20.12 94.1652 19.304ZM101.527 26.168C100.919 26.168 100.415 25.984 100.015 25.616C99.6308 25.232 99.4388 24.76 99.4388 24.2C99.4388 23.64 99.6308 23.176 100.015 22.808C100.415 22.424 100.919 22.232 101.527 22.232C102.119 22.232 102.607 22.424 102.991 22.808C103.375 23.176 103.567 23.64 103.567 24.2C103.567 24.76 103.375 25.232 102.991 25.616C102.607 25.984 102.119 26.168 101.527 26.168ZM128.504 12.512C130.136 12.512 131.448 13.016 132.44 14.024C133.448 15.016 133.952 16.408 133.952 18.2V26H130.592V18.656C130.592 17.616 130.328 16.824 129.8 16.28C129.272 15.72 128.552 15.44 127.64 15.44C126.728 15.44 126 15.72 125.456 16.28C124.928 16.824 124.664 17.616 124.664 18.656V26H121.304V18.656C121.304 17.616 121.04 16.824 120.512 16.28C119.984 15.72 119.264 15.44 118.352 15.44C117.424 15.44 116.688 15.72 116.144 16.28C115.616 16.824 115.352 17.616 115.352 18.656V26H111.992V12.704H115.352V14.312C115.784 13.752 116.336 13.312 117.008 12.992C117.696 12.672 118.448 12.512 119.264 12.512C120.304 12.512 121.232 12.736 122.048 13.184C122.864 13.616 123.496 14.24 123.944 15.056C124.376 14.288 125 13.672 125.816 13.208C126.648 12.744 127.544 12.512 128.504 12.512ZM143.044 26.216C141.764 26.216 140.612 25.936 139.588 25.376C138.564 24.8 137.756 23.992 137.164 22.952C136.588 21.912 136.3 20.712 136.3 19.352C136.3 17.992 136.596 16.792 137.188 15.752C137.796 14.712 138.62 13.912 139.66 13.352C140.7 12.776 141.86 12.488 143.14 12.488C144.42 12.488 145.58 12.776 146.62 13.352C147.66 13.912 148.476 14.712 149.068 15.752C149.676 16.792 149.98 17.992 149.98 19.352C149.98 20.712 149.668 21.912 149.044 22.952C148.436 23.992 147.604 24.8 146.548 25.376C145.508 25.936 144.34 26.216 143.044 26.216ZM143.044 23.288C143.652 23.288 144.22 23.144 144.748 22.856C145.292 22.552 145.724 22.104 146.044 21.512C146.364 20.92 146.524 20.2 146.524 19.352C146.524 18.088 146.188 17.12 145.516 16.448C144.86 15.76 144.052 15.416 143.092 15.416C142.132 15.416 141.324 15.76 140.668 16.448C140.028 17.12 139.708 18.088 139.708 19.352C139.708 20.616 140.02 21.592 140.644 22.28C141.284 22.952 142.084 23.288 143.044 23.288ZM159.813 12.512C161.397 12.512 162.677 13.016 163.653 14.024C164.629 15.016 165.117 16.408 165.117 18.2V26H161.757V18.656C161.757 17.6 161.493 16.792 160.965 16.232C160.437 15.656 159.717 15.368 158.805 15.368C157.877 15.368 157.141 15.656 156.597 16.232C156.069 16.792 155.805 17.6 155.805 18.656V26H152.445V12.704H155.805V14.36C156.253 13.784 156.821 13.336 157.509 13.016C158.213 12.68 158.981 12.512 159.813 12.512ZM180.672 19.064C180.672 19.544 180.64 19.976 180.576 20.36H170.856C170.936 21.32 171.272 22.072 171.864 22.616C172.456 23.16 173.184 23.432 174.048 23.432C175.296 23.432 176.184 22.896 176.712 21.824H180.336C179.952 23.104 179.216 24.16 178.128 24.992C177.04 25.808 175.704 26.216 174.12 26.216C172.84 26.216 171.688 25.936 170.664 25.376C169.656 24.8 168.864 23.992 168.288 22.952C167.728 21.912 167.448 20.712 167.448 19.352C167.448 17.976 167.728 16.768 168.288 15.728C168.848 14.688 169.632 13.888 170.64 13.328C171.648 12.768 172.808 12.488 174.12 12.488C175.384 12.488 176.512 12.76 177.504 13.304C178.512 13.848 179.288 14.624 179.832 15.632C180.392 16.624 180.672 17.768 180.672 19.064ZM177.192 18.104C177.176 17.24 176.864 16.552 176.256 16.04C175.648 15.512 174.904 15.248 174.024 15.248C173.192 15.248 172.488 15.504 171.912 16.016C171.352 16.512 171.008 17.208 170.88 18.104H177.192ZM195.845 12.704L187.613 32.288H184.037L186.917 25.664L181.589 12.704H185.357L188.789 21.992L192.269 12.704H195.845Z" fill="white"/>
<defs>
<clipPath id="clip0">
<rect width="27.4286" height="27.4286" fill="white" transform="translate(6.85715 6.85715)"/>
</clipPath>
</defs>
</svg>
