<svg width="203" height="40" viewBox="0 0 203 40" fill="none" xmlns="http://www.w3.org/2000/svg">
<path d="M34.1422 5.85781C30.3647 2.08031 25.3422 0 20 0C14.6578 0 9.63531 2.08031 5.85781 5.85781C2.08031 9.63531 0 14.6578 0 20C0 25.3422 2.08039 30.3646 5.85781 34.1422C9.63523 37.9198 14.6578 40 20 40C25.3422 40 30.3647 37.9197 34.1422 34.1422C37.9197 30.3647 40 25.3422 40 20C40 14.6578 37.9196 9.63539 34.1422 5.85781Z" fill="#33CC95"/>
<g clip-path="url(#clip0)">
<path d="M20.5713 8V33.1429" stroke="white" stroke-width="2" stroke-linecap="round" stroke-linejoin="round"/>
<path d="M26.2853 12.5714H17.7139C16.653 12.5714 15.6356 12.9929 14.8854 13.743C14.1353 14.4932 13.7139 15.5106 13.7139 16.5714C13.7139 17.6323 14.1353 18.6497 14.8854 19.3999C15.6356 20.15 16.653 20.5714 17.7139 20.5714H23.4282C24.489 20.5714 25.5064 20.9929 26.2566 21.743C27.0067 22.4932 27.4282 23.5106 27.4282 24.5714C27.4282 25.6323 27.0067 26.6497 26.2566 27.3999C25.5064 28.15 24.489 28.5714 23.4282 28.5714H13.7139" stroke="white" stroke-width="2" stroke-linecap="round" stroke-linejoin="round"/>
</g>
<path d="M57.3779 19.304C57.3779 17.96 57.6419 16.768 58.1699 15.728C58.7139 14.688 59.4419 13.888 60.3539 13.328C61.2819 12.768 62.3139 12.488 63.4499 12.488C64.4419 12.488 65.3059 12.688 66.0419 13.088C66.7939 13.488 67.3939 13.992 67.8419 14.6V12.704H71.2259V26H67.8419V24.056C67.4099 24.68 66.8099 25.2 66.0419 25.616C65.2899 26.016 64.4179 26.216 63.4259 26.216C62.3059 26.216 61.2819 25.928 60.3539 25.352C59.4419 24.776 58.7139 23.968 58.1699 22.928C57.6419 21.872 57.3779 20.664 57.3779 19.304ZM67.8419 19.352C67.8419 18.536 67.6819 17.84 67.3619 17.264C67.0419 16.672 66.6099 16.224 66.0659 15.92C65.5219 15.6 64.9379 15.44 64.3139 15.44C63.6899 15.44 63.1139 15.592 62.5859 15.896C62.0579 16.2 61.6259 16.648 61.2899 17.24C60.9699 17.816 60.8099 18.504 60.8099 19.304C60.8099 20.104 60.9699 20.808 61.2899 21.416C61.6259 22.008 62.0579 22.464 62.5859 22.784C63.1299 23.104 63.7059 23.264 64.3139 23.264C64.9379 23.264 65.5219 23.112 66.0659 22.808C66.6099 22.488 67.0419 22.04 67.3619 21.464C67.6819 20.872 67.8419 20.168 67.8419 19.352ZM73.6436 19.304C73.6436 17.96 73.9076 16.768 74.4356 15.728C74.9796 14.688 75.7076 13.888 76.6196 13.328C77.5476 12.768 78.5796 12.488 79.7156 12.488C80.7076 12.488 81.5716 12.688 82.3076 13.088C83.0596 13.488 83.6596 13.992 84.1076 14.6V12.704H87.4916V26H84.1076V24.056C83.6756 24.68 83.0756 25.2 82.3076 25.616C81.5556 26.016 80.6836 26.216 79.6916 26.216C78.5716 26.216 77.5476 25.928 76.6196 25.352C75.7076 24.776 74.9796 23.968 74.4356 22.928C73.9076 21.872 73.6436 20.664 73.6436 19.304ZM84.1076 19.352C84.1076 18.536 83.9476 17.84 83.6276 17.264C83.3076 16.672 82.8756 16.224 82.3316 15.92C81.7876 15.6 81.2036 15.44 80.5796 15.44C79.9556 15.44 79.3796 15.592 78.8516 15.896C78.3236 16.2 77.8916 16.648 77.5556 17.24C77.2356 17.816 77.0756 18.504 77.0756 19.304C77.0756 20.104 77.2356 20.808 77.5556 21.416C77.8916 22.008 78.3236 22.464 78.8516 22.784C79.3956 23.104 79.9716 23.264 80.5796 23.264C81.2036 23.264 81.7876 23.112 82.3316 22.808C82.8756 22.488 83.3076 22.04 83.6276 21.464C83.9476 20.872 84.1076 20.168 84.1076 19.352ZM94.1332 14.624C94.5652 14.016 95.1572 13.512 95.9092 13.112C96.6772 12.696 97.5492 12.488 98.5252 12.488C99.6612 12.488 100.685 12.768 101.597 13.328C102.525 13.888 103.253 14.688 103.781 15.728C104.325 16.752 104.597 17.944 104.597 19.304C104.597 20.664 104.325 21.872 103.781 22.928C103.253 23.968 102.525 24.776 101.597 25.352C100.685 25.928 99.6612 26.216 98.5252 26.216C97.5492 26.216 96.6852 26.016 95.9332 25.616C95.1972 25.216 94.5972 24.712 94.1332 24.104V32.336H90.7732V12.704H94.1332V14.624ZM101.165 19.304C101.165 18.504 100.997 17.816 100.661 17.24C100.341 16.648 99.9092 16.2 99.3652 15.896C98.8372 15.592 98.2612 15.44 97.6372 15.44C97.0292 15.44 96.4532 15.6 95.9092 15.92C95.3812 16.224 94.9492 16.672 94.6132 17.264C94.2932 17.856 94.1332 18.552 94.1332 19.352C94.1332 20.152 94.2932 20.848 94.6132 21.44C94.9492 22.032 95.3812 22.488 95.9092 22.808C96.4532 23.112 97.0292 23.264 97.6372 23.264C98.2612 23.264 98.8372 23.104 99.3652 22.784C99.9092 22.464 100.341 22.008 100.661 21.416C100.997 20.824 101.165 20.12 101.165 19.304ZM108.527 26.168C107.919 26.168 107.415 25.984 107.015 25.616C106.631 25.232 106.439 24.76 106.439 24.2C106.439 23.64 106.631 23.176 107.015 22.808C107.415 22.424 107.919 22.232 108.527 22.232C109.119 22.232 109.607 22.424 109.991 22.808C110.375 23.176 110.567 23.64 110.567 24.2C110.567 24.76 110.375 25.232 109.991 25.616C109.607 25.984 109.119 26.168 108.527 26.168ZM135.504 12.512C137.136 12.512 138.448 13.016 139.44 14.024C140.448 15.016 140.952 16.408 140.952 18.2V26H137.592V18.656C137.592 17.616 137.328 16.824 136.8 16.28C136.272 15.72 135.552 15.44 134.64 15.44C133.728 15.44 133 15.72 132.456 16.28C131.928 16.824 131.664 17.616 131.664 18.656V26H128.304V18.656C128.304 17.616 128.04 16.824 127.512 16.28C126.984 15.72 126.264 15.44 125.352 15.44C124.424 15.44 123.688 15.72 123.144 16.28C122.616 16.824 122.352 17.616 122.352 18.656V26H118.992V12.704H122.352V14.312C122.784 13.752 123.336 13.312 124.008 12.992C124.696 12.672 125.448 12.512 126.264 12.512C127.304 12.512 128.232 12.736 129.048 13.184C129.864 13.616 130.496 14.24 130.944 15.056C131.376 14.288 132 13.672 132.816 13.208C133.648 12.744 134.544 12.512 135.504 12.512ZM150.044 26.216C148.764 26.216 147.612 25.936 146.588 25.376C145.564 24.8 144.756 23.992 144.164 22.952C143.588 21.912 143.3 20.712 143.3 19.352C143.3 17.992 143.596 16.792 144.188 15.752C144.796 14.712 145.62 13.912 146.66 13.352C147.7 12.776 148.86 12.488 150.14 12.488C151.42 12.488 152.58 12.776 153.62 13.352C154.66 13.912 155.476 14.712 156.068 15.752C156.676 16.792 156.98 17.992 156.98 19.352C156.98 20.712 156.668 21.912 156.044 22.952C155.436 23.992 154.604 24.8 153.548 25.376C152.508 25.936 151.34 26.216 150.044 26.216ZM150.044 23.288C150.652 23.288 151.22 23.144 151.748 22.856C152.292 22.552 152.724 22.104 153.044 21.512C153.364 20.92 153.524 20.2 153.524 19.352C153.524 18.088 153.188 17.12 152.516 16.448C151.86 15.76 151.052 15.416 150.092 15.416C149.132 15.416 148.324 15.76 147.668 16.448C147.028 17.12 146.708 18.088 146.708 19.352C146.708 20.616 147.02 21.592 147.644 22.28C148.284 22.952 149.084 23.288 150.044 23.288ZM166.813 12.512C168.397 12.512 169.677 13.016 170.653 14.024C171.629 15.016 172.117 16.408 172.117 18.2V26H168.757V18.656C168.757 17.6 168.493 16.792 167.965 16.232C167.437 15.656 166.717 15.368 165.805 15.368C164.877 15.368 164.141 15.656 163.597 16.232C163.069 16.792 162.805 17.6 162.805 18.656V26H159.445V12.704H162.805V14.36C163.253 13.784 163.821 13.336 164.509 13.016C165.213 12.68 165.981 12.512 166.813 12.512ZM187.672 19.064C187.672 19.544 187.64 19.976 187.576 20.36H177.856C177.936 21.32 178.272 22.072 178.864 22.616C179.456 23.16 180.184 23.432 181.048 23.432C182.296 23.432 183.184 22.896 183.712 21.824H187.336C186.952 23.104 186.216 24.16 185.128 24.992C184.04 25.808 182.704 26.216 181.12 26.216C179.84 26.216 178.688 25.936 177.664 25.376C176.656 24.8 175.864 23.992 175.288 22.952C174.728 21.912 174.448 20.712 174.448 19.352C174.448 17.976 174.728 16.768 175.288 15.728C175.848 14.688 176.632 13.888 177.64 13.328C178.648 12.768 179.808 12.488 181.12 12.488C182.384 12.488 183.512 12.76 184.504 13.304C185.512 13.848 186.288 14.624 186.832 15.632C187.392 16.624 187.672 17.768 187.672 19.064ZM184.192 18.104C184.176 17.24 183.864 16.552 183.256 16.04C182.648 15.512 181.904 15.248 181.024 15.248C180.192 15.248 179.488 15.504 178.912 16.016C178.352 16.512 178.008 17.208 177.88 18.104H184.192ZM202.845 12.704L194.613 32.288H191.037L193.917 25.664L188.589 12.704H192.357L195.789 21.992L199.269 12.704H202.845Z" fill="#969CB3"/>
<defs>
<clipPath id="clip0">
<rect width="27.4286" height="27.4286" fill="white" transform="translate(6.85693 6.85715)"/>
</clipPath>
</defs>
</svg>
